<?xml version="1.0" encoding="utf-8"?>
<!-- Generator: Adobe Illustrator 27.5.0, SVG Export Plug-In . SVG Version: 6.00 Build 0)  -->
<svg version="1.1" xmlns="http://www.w3.org/2000/svg" xmlns:xlink="http://www.w3.org/1999/xlink" x="0px" y="0px"
	 viewBox="0 0 800 1200" style="enable-background:new 0 0 800 1200;" xml:space="preserve">
<g id="Background">
	
		<rect x="-200" y="200" transform="matrix(-1.836970e-16 1 -1 -1.836970e-16 1000 200)" style="fill:#FCF8F4;" width="1200" height="800"/>
	<polygon style="fill:#F9EBEB;" points="231.216,1200 800,1200 800,631.216 	"/>
	<rect style="fill:#FBF2D7;" width="212.179" height="1200"/>
</g>
<g id="Graphic_Elements">
	
		<polyline style="fill:none;stroke:#F2CB5F;stroke-width:12.5546;stroke-linecap:square;stroke-linejoin:round;stroke-miterlimit:10;" points="
		677.296,1052.884 651.793,1027.539 626.286,1052.884 600.783,1027.539 575.279,1052.884 549.773,1027.539 524.262,1052.884 
		498.756,1027.539 	"/>
	<g>
		<g>
			
				<line style="fill:none;stroke:#F2CB5F;stroke-width:7.0551;stroke-linecap:round;stroke-miterlimit:10;" x1="719.716" y1="903.977" x2="692.325" y2="931.368"/>
			
				<line style="fill:none;stroke:#F2CB5F;stroke-width:7.0551;stroke-linecap:round;stroke-miterlimit:10;" x1="719.716" y1="931.368" x2="692.325" y2="903.977"/>
		</g>
	</g>
	<path style="fill:none;stroke:#CED7FF;stroke-width:10.0787;stroke-linecap:round;stroke-miterlimit:10;" d="M706.02,398.267
		c0-25.141,30.932-25.141,30.932-50.282c0-25.142-30.932-25.142-30.932-50.284c0-25.141,30.932-25.141,30.932-50.283
		c0-25.145-30.932-25.145-30.932-50.289c0-25.145,30.932-25.145,30.932-50.29"/>
	<g>
		<g>
			
				<line style="fill:none;stroke:#000000;stroke-width:4.0315;stroke-linecap:round;stroke-miterlimit:10;stroke-dasharray:0,30.2361;" x1="786.193" y1="293.233" x2="786.193" y2="829.42"/>
			
				<line style="fill:none;stroke:#000000;stroke-width:4.0315;stroke-linecap:round;stroke-miterlimit:10;stroke-dasharray:0,30.2361;" x1="757.469" y1="293.737" x2="757.469" y2="829.924"/>
			
				<line style="fill:none;stroke:#000000;stroke-width:4.0315;stroke-linecap:round;stroke-miterlimit:10;stroke-dasharray:0,30.2361;" x1="728.745" y1="294.241" x2="728.745" y2="830.428"/>
			
				<line style="fill:none;stroke:#000000;stroke-width:4.0315;stroke-linecap:round;stroke-miterlimit:10;stroke-dasharray:0,30.2361;" x1="700.02" y1="294.745" x2="700.02" y2="830.932"/>
			
				<line style="fill:none;stroke:#000000;stroke-width:4.0315;stroke-linecap:round;stroke-miterlimit:10;stroke-dasharray:0,30.2361;" x1="671.296" y1="295.249" x2="671.296" y2="831.435"/>
		</g>
	</g>
	<g>
		<defs>
			
				<rect id="SVGID_1_" x="-200" y="200" transform="matrix(-1.836970e-16 1 -1 -1.836970e-16 1000 200)" width="1200" height="800"/>
		</defs>
		<clipPath id="SVGID_00000110455422422122808460000009787263207542410121_">
			<use xlink:href="#SVGID_1_"  style="overflow:visible;"/>
		</clipPath>
		<g style="clip-path:url(#SVGID_00000110455422422122808460000009787263207542410121_);">
			
				<ellipse transform="matrix(0.7071 -0.7071 0.7071 0.7071 -672.3542 391.0492)" style="fill:#F0C1BE;" cx="135.861" cy="1007.128" rx="151.785" ry="151.785"/>
			
				<ellipse transform="matrix(0.7071 -0.7071 0.7071 0.7071 -653.4964 350.4388)" style="fill:#FFFFFF;" cx="96.269" cy="964.059" rx="151.785" ry="151.785"/>
			<g>
				<path style="fill:none;stroke:#000000;stroke-width:6.6505;stroke-linecap:round;stroke-miterlimit:10;" d="M232.675,923.624
					c-3.253-6.176-9.112-10.924-15.828-12.828"/>
				<path style="fill:none;stroke:#000000;stroke-width:6.6505;stroke-linecap:round;stroke-miterlimit:10;" d="M13.868,913.169
					c-10.589,11.696-20.142,24.33-28.508,37.705"/>
				<path style="fill:none;stroke:#000000;stroke-width:6.6505;stroke-linecap:round;stroke-miterlimit:10;" d="M34.883,857.612
					c8.661,4.781,15.657,12.514,19.55,21.609"/>
				<path style="fill:none;stroke:#000000;stroke-width:6.6505;stroke-linecap:round;stroke-miterlimit:10;" d="M31.803,889.261
					c4.847,10.25,8.322,21.148,10.303,32.313"/>
				<path style="fill:none;stroke:#000000;stroke-width:6.6505;stroke-linecap:round;stroke-miterlimit:10;" d="M65.946,899.478
					c15.672-8.855,32.477-15.699,49.876-20.314"/>
				<path style="fill:none;stroke:#000000;stroke-width:6.6505;stroke-linecap:round;stroke-miterlimit:10;" d="M53.138,830.619
					c11.611,0.874,23.222,1.749,34.833,2.623"/>
				<path style="fill:none;stroke:#000000;stroke-width:6.6505;stroke-linecap:round;stroke-miterlimit:10;" d="M-41.271,913.191
					c2.366,7.537,4.732,15.075,7.099,22.612"/>
				<path style="fill:none;stroke:#000000;stroke-width:6.6505;stroke-linecap:round;stroke-miterlimit:10;" d="M109.229,820.073
					c1.719,7.322,3.438,14.644,5.157,21.967"/>
				<path style="fill:none;stroke:#000000;stroke-width:6.6505;stroke-linecap:round;stroke-miterlimit:10;" d="M75.027,867.243
					c4.955-2.795,9.91-5.59,14.866-8.385"/>
				<path style="fill:none;stroke:#000000;stroke-width:6.6505;stroke-linecap:round;stroke-miterlimit:10;" d="M141.705,829.323
					c11.942,5.974,22.367,14.952,30.046,25.876"/>
				<path style="fill:none;stroke:#000000;stroke-width:6.6505;stroke-linecap:round;stroke-miterlimit:10;" d="M45.983,940.454
					c-8.711,0.821-17.053,5.065-22.846,11.622"/>
				<path style="fill:none;stroke:#000000;stroke-width:6.6505;stroke-linecap:round;stroke-miterlimit:10;" d="M147.26,884.125
					c2.842,10.547,4.577,21.393,5.168,32.3"/>
				<path style="fill:none;stroke:#000000;stroke-width:6.6505;stroke-linecap:round;stroke-miterlimit:10;" d="M181.326,901.326
					c-2.369,7.536-4.738,15.073-7.107,22.61"/>
				<path style="fill:none;stroke:#000000;stroke-width:6.6505;stroke-linecap:round;stroke-miterlimit:10;" d="M-1.798,969.994
					c5.741,2.738,11.481,5.475,17.222,8.213"/>
				<path style="fill:none;stroke:#000000;stroke-width:6.6505;stroke-linecap:round;stroke-miterlimit:10;" d="M-40.232,997.963
					c4.142,7.775,10.345,14.441,17.803,19.13"/>
				<path style="fill:none;stroke:#000000;stroke-width:6.6505;stroke-linecap:round;stroke-miterlimit:10;" d="M7.236,851.16
					c6.111-8.718,15.083-15.394,25.189-18.742"/>
				<path style="fill:none;stroke:#000000;stroke-width:6.6505;stroke-linecap:round;stroke-miterlimit:10;" d="M-33.11,891.203
					c14.742-6.574,30.704-10.4,46.824-11.223"/>
				<path style="fill:none;stroke:#000000;stroke-width:6.6505;stroke-linecap:round;stroke-miterlimit:10;" d="M-41.217,958.394
					c-4.771,8.083-8.473,16.796-10.982,25.84"/>
				<path style="fill:none;stroke:#000000;stroke-width:6.6505;stroke-linecap:round;stroke-miterlimit:10;" d="M103.18,907.595
					c7.764,6.445,15.528,12.891,23.293,19.336"/>
				<path style="fill:none;stroke:#000000;stroke-width:6.6505;stroke-linecap:round;stroke-miterlimit:10;" d="M197.973,860.343
					c-7.068,4.586-13.391,10.319-18.644,16.907"/>
				<path style="fill:none;stroke:#000000;stroke-width:6.6505;stroke-linecap:round;stroke-miterlimit:10;" d="M164.3,941.419
					c17.863,8.836,33.182,22.745,43.698,39.673"/>
				<path style="fill:none;stroke:#000000;stroke-width:6.6505;stroke-linecap:round;stroke-miterlimit:10;" d="M211.18,929.274
					c4.085,12.051,6.257,24.749,6.408,37.472"/>
				<path style="fill:none;stroke:#000000;stroke-width:6.6505;stroke-linecap:round;stroke-miterlimit:10;" d="M70.798,953.254
					c10.327-9.505,22.198-17.33,35.004-23.074"/>
				<path style="fill:none;stroke:#000000;stroke-width:6.6505;stroke-linecap:round;stroke-miterlimit:10;" d="M118.441,858.65
					c11.288-1.593,22.742-2.004,34.115-1.226"/>
				<path style="fill:none;stroke:#000000;stroke-width:6.6505;stroke-linecap:round;stroke-miterlimit:10;" d="M159.043,973.252
					c5.186,12.074,11.698,23.577,19.38,34.238"/>
				<path style="fill:none;stroke:#000000;stroke-width:6.6505;stroke-linecap:round;stroke-miterlimit:10;" d="M38.204,979.309
					c10.988-1.011,21.976-2.022,32.964-3.034"/>
				<path style="fill:none;stroke:#000000;stroke-width:6.6505;stroke-linecap:round;stroke-miterlimit:10;" d="M126.783,980.956
					c5.887,4.898,12.697,8.681,19.966,11.092"/>
				<path style="fill:none;stroke:#000000;stroke-width:6.6505;stroke-linecap:round;stroke-miterlimit:10;" d="M195.567,1014.649
					c-3.494,13.767-10.566,26.609-20.332,36.923"/>
				<path style="fill:none;stroke:#000000;stroke-width:6.6505;stroke-linecap:round;stroke-miterlimit:10;" d="M2.81,1009.215
					c10.561,4.931,21.123,9.862,31.684,14.794"/>
				<path style="fill:none;stroke:#000000;stroke-width:6.6505;stroke-linecap:round;stroke-miterlimit:10;" d="M99.132,971.18
					c-3.703,13.283-5.683,27.045-5.874,40.833"/>
				<path style="fill:none;stroke:#000000;stroke-width:6.6505;stroke-linecap:round;stroke-miterlimit:10;" d="M140.428,1012.855
					c-13.812,8.348-27.623,16.696-41.435,25.044"/>
				<path style="fill:none;stroke:#000000;stroke-width:6.6505;stroke-linecap:round;stroke-miterlimit:10;" d="M207.363,880.638
					c-2.463,10.15-4.927,20.3-7.39,30.45"/>
				<path style="fill:none;stroke:#000000;stroke-width:6.6505;stroke-linecap:round;stroke-miterlimit:10;" d="M59.986,1013.2
					c3.132,12.791,0.221,26.927-7.711,37.439"/>
				<path style="fill:none;stroke:#000000;stroke-width:6.6505;stroke-linecap:round;stroke-miterlimit:10;" d="M79.101,1060.962
					c4.094,9.253,16.177,13.999,25.474,10.007"/>
				<path style="fill:none;stroke:#000000;stroke-width:6.6505;stroke-linecap:round;stroke-miterlimit:10;" d="M151.602,1038.291
					c-4.805,7.78-8.179,16.44-9.904,25.42"/>
				<path style="fill:none;stroke:#000000;stroke-width:6.6505;stroke-linecap:round;stroke-miterlimit:10;" d="M-12.883,1053.408
					c0.307,10.091,4.653,20.002,11.867,27.064"/>
				<path style="fill:none;stroke:#000000;stroke-width:6.6505;stroke-linecap:round;stroke-miterlimit:10;" d="M-45.534,1028.377
					c9.141,4.675,19.27,7.406,29.523,7.959"/>
				<path style="fill:none;stroke:#000000;stroke-width:6.6505;stroke-linecap:round;stroke-miterlimit:10;" d="M28.551,1055.94
					c-0.478,8.842-0.044,17.733,1.292,26.486"/>
				<path style="fill:none;stroke:#000000;stroke-width:6.6505;stroke-linecap:round;stroke-miterlimit:10;" d="M154.524,1072.682
					c11.628,0.646,23.256,1.292,34.884,1.938"/>
				<path style="fill:none;stroke:#000000;stroke-width:6.6505;stroke-linecap:round;stroke-miterlimit:10;" d="M126.743,1078.55
					c-7.57,3.732-14.732,8.289-21.318,13.566"/>
				<path style="fill:none;stroke:#000000;stroke-width:6.6505;stroke-linecap:round;stroke-miterlimit:10;" d="M37.012,1100.36
					c14.248,5.867,29.745,8.679,45.145,8.19"/>
				<path style="fill:none;stroke:#000000;stroke-width:6.6505;stroke-linecap:round;stroke-miterlimit:10;" d="M210.938,1049.818
					c1.334-7.529,2.667-15.059,4.001-22.588"/>
				<path style="fill:none;stroke:#000000;stroke-width:6.6505;stroke-linecap:round;stroke-miterlimit:10;" d="M126.068,1104.97
					c8.398-3.661,16.796-7.321,25.194-10.982"/>
				<path style="fill:none;stroke:#000000;stroke-width:6.6505;stroke-linecap:round;stroke-miterlimit:10;" d="M139.017,945.474
					c-9.86,4.248-19.208,9.683-27.778,16.15"/>
				<path style="fill:none;stroke:#000000;stroke-width:6.6505;stroke-linecap:round;stroke-miterlimit:10;" d="M12.702,1040.392
					c-3.893,4.324-7.785,8.647-11.678,12.971"/>
				<path style="fill:none;stroke:#000000;stroke-width:6.6505;stroke-linecap:round;stroke-miterlimit:10;" d="M205.56,999.672
					c8.627,0.415,17.347-1.236,25.225-4.777"/>
				<path style="fill:none;stroke:#000000;stroke-width:6.6505;stroke-linecap:round;stroke-miterlimit:10;" d="M239.755,961.448
					c0.502,2.753,1.004,5.506,1.505,8.259"/>
				<path style="fill:none;stroke:#000000;stroke-width:6.6505;stroke-linecap:round;stroke-miterlimit:10;" d="M-16.19,910.422
					c1.891-1.547,3.782-3.094,5.673-4.641"/>
				<path style="fill:none;stroke:#000000;stroke-width:6.6505;stroke-linecap:round;stroke-miterlimit:10;" d="M-20.189,984.048
					c3.054,3.265,5.008,7.541,5.477,11.987"/>
				<path style="fill:none;stroke:#000000;stroke-width:6.6505;stroke-linecap:round;stroke-miterlimit:10;" d="M68.353,917.155
					c2.111,2.363,4.222,4.727,6.333,7.091"/>
				<path style="fill:none;stroke:#000000;stroke-width:6.6505;stroke-linecap:round;stroke-miterlimit:10;" d="M162.829,870.219
					c-0.866,2.748-1.731,5.497-2.597,8.246"/>
				<path style="fill:none;stroke:#000000;stroke-width:6.6505;stroke-linecap:round;stroke-miterlimit:10;" d="M67.354,1081.119
					c-0.344,2.235-0.688,4.469-1.031,6.704"/>
				<path style="fill:none;stroke:#000000;stroke-width:6.6505;stroke-linecap:round;stroke-miterlimit:10;" d="M221.967,895.229
					c0.16,0.364,0.32,0.728,0.48,1.092"/>
				<path style="fill:none;stroke:#000000;stroke-width:6.6505;stroke-linecap:round;stroke-miterlimit:10;" d="M-18.972,865.4
					c1.266-2.654,3.339-4.915,5.873-6.407"/>
				<path style="fill:none;stroke:#000000;stroke-width:6.6505;stroke-linecap:round;stroke-miterlimit:10;" d="M-28.048,1053.862
					c0-0.712,0-1.424,0-2.135"/>
				<path style="fill:none;stroke:#000000;stroke-width:6.6505;stroke-linecap:round;stroke-miterlimit:10;" d="M101.153,1108.319
					c0.534,1.068,1.068,2.135,1.602,3.203"/>
			</g>
		</g>
		<g style="clip-path:url(#SVGID_00000110455422422122808460000009787263207542410121_);">
			<g>
				
					<line style="fill:none;stroke:#F2CB5F;stroke-width:7.0551;stroke-linecap:round;stroke-miterlimit:10;" x1="62.898" y1="563.779" x2="24.162" y2="563.779"/>
				
					<line style="fill:none;stroke:#F2CB5F;stroke-width:7.0551;stroke-linecap:round;stroke-miterlimit:10;" x1="43.53" y1="583.147" x2="43.53" y2="544.411"/>
			</g>
		</g>
		
			<path style="clip-path:url(#SVGID_00000110455422422122808460000009787263207542410121_);fill:none;stroke:#E99C35;stroke-width:9.2316;stroke-linecap:square;stroke-linejoin:round;stroke-miterlimit:10;" d="
			M135.158,254.02c-7.09,54.243-57.07,93.345-111.425,87.172c-54.994-6.245-95.109-56.638-88.864-111.632
			c6.245-54.994,56.638-95.109,111.632-88.864"/>
		
			<rect x="84.882" y="-9.841" style="clip-path:url(#SVGID_00000110455422422122808460000009787263207542410121_);fill:#CED7FF;" width="223.862" height="223.862"/>
		<g style="clip-path:url(#SVGID_00000110455422422122808460000009787263207542410121_);">
			<path d="M57.215,73.489c-1.239,0-2.247,1.017-2.247,2.266c0,1.25,1.008,2.266,2.247,2.266c1.24,0,2.248-1.016,2.248-2.266
				C59.462,74.505,58.454,73.489,57.215,73.489z"/>
			<path d="M95.744,73.489c-1.239,0-2.248,1.017-2.248,2.266c0,1.25,1.008,2.266,2.248,2.266c1.24,0,2.248-1.016,2.248-2.266
				C97.992,74.505,96.984,73.489,95.744,73.489z"/>
			<path d="M76.479,73.489c-1.239,0-2.247,1.017-2.247,2.266c0,1.25,1.008,2.266,2.247,2.266c1.24,0,2.248-1.016,2.248-2.266
				C78.727,74.505,77.719,73.489,76.479,73.489z"/>
			<path d="M76.158,55.038c-1.239,0-2.248,1.017-2.248,2.266c0,1.25,1.008,2.266,2.248,2.266c1.24,0,2.248-1.016,2.248-2.266
				C78.406,56.054,77.398,55.038,76.158,55.038z"/>
			<path d="M56.894,55.038c-1.239,0-2.248,1.017-2.248,2.266c0,1.25,1.008,2.266,2.248,2.266c1.24,0,2.248-1.016,2.248-2.266
				C59.141,56.054,58.133,55.038,56.894,55.038z"/>
			<path d="M114.688,55.038c-1.239,0-2.248,1.017-2.248,2.266c0,1.25,1.008,2.266,2.248,2.266c1.24,0,2.248-1.016,2.248-2.266
				C116.935,56.054,115.927,55.038,114.688,55.038z"/>
			<path d="M95.423,55.038c-1.239,0-2.248,1.017-2.248,2.266c0,1.25,1.008,2.266,2.248,2.266c1.24,0,2.247-1.016,2.247-2.266
				C97.671,56.054,96.663,55.038,95.423,55.038z"/>
			<path d="M57.215,110.39c-1.239,0-2.247,1.017-2.247,2.266c0,1.25,1.008,2.266,2.247,2.266c1.24,0,2.248-1.016,2.248-2.266
				C59.462,111.407,58.454,110.39,57.215,110.39z"/>
			<path d="M76.158,91.939c-1.239,0-2.248,1.017-2.248,2.266c0,1.25,1.008,2.266,2.248,2.266c1.24,0,2.248-1.016,2.248-2.266
				C78.406,92.956,77.398,91.939,76.158,91.939z"/>
			<path d="M56.894,91.939c-1.239,0-2.248,1.017-2.248,2.266c0,1.25,1.008,2.266,2.248,2.266c1.24,0,2.248-1.016,2.248-2.266
				C59.141,92.956,58.133,91.939,56.894,91.939z"/>
			<path d="M133.631,36.587c-1.239,0-2.248,1.017-2.248,2.266c0,1.25,1.008,2.266,2.248,2.266c1.24,0,2.248-1.016,2.248-2.266
				C135.879,37.604,134.871,36.587,133.631,36.587z"/>
			<path d="M95.102,36.587c-1.239,0-2.248,1.017-2.248,2.266c0,1.25,1.008,2.266,2.248,2.266c1.24,0,2.248-1.016,2.248-2.266
				C97.35,37.604,96.342,36.587,95.102,36.587z"/>
			<path d="M114.367,36.587c-1.239,0-2.248,1.017-2.248,2.266c0,1.25,1.008,2.266,2.248,2.266c1.246,0,2.247-1.016,2.247-2.266
				C116.614,37.604,115.613,36.587,114.367,36.587z"/>
			<path d="M75.837,36.587c-1.239,0-2.248,1.017-2.248,2.266c0,1.25,1.008,2.266,2.248,2.266c1.246,0,2.247-1.016,2.247-2.266
				C78.085,37.604,77.083,36.587,75.837,36.587z"/>
			<path d="M56.573,36.587c-1.239,0-2.248,1.017-2.248,2.266c0,1.25,1.008,2.266,2.248,2.266c1.24,0,2.247-1.016,2.247-2.266
				C58.82,37.604,57.812,36.587,56.573,36.587z"/>
			<path d="M133.31,18.136c-1.239,0-2.247,1.017-2.247,2.266c0,1.25,1.008,2.266,2.247,2.266c1.24,0,2.248-1.016,2.248-2.266
				C135.558,19.153,134.55,18.136,133.31,18.136z"/>
			<ellipse cx="114.046" cy="20.402" rx="2.247" ry="2.266"/>
			<path d="M94.781,18.136c-1.239,0-2.248,1.017-2.248,2.266c0,1.25,1.008,2.266,2.248,2.266c1.24,0,2.247-1.016,2.247-2.266
				C97.028,19.153,96.021,18.136,94.781,18.136z"/>
			<path d="M152.575,18.136c-1.239,0-2.247,1.017-2.247,2.266c0,1.25,1.008,2.266,2.247,2.266c1.24,0,2.248-1.016,2.248-2.266
				C154.823,19.153,153.815,18.136,152.575,18.136z"/>
			<path d="M56.251,18.136c-1.239,0-2.248,1.017-2.248,2.266c0,1.25,1.008,2.266,2.248,2.266c1.24,0,2.248-1.016,2.248-2.266
				C58.499,19.153,57.491,18.136,56.251,18.136z"/>
			<path d="M75.516,18.136c-1.239,0-2.248,1.017-2.248,2.266c0,1.25,1.008,2.266,2.248,2.266c1.24,0,2.248-1.016,2.248-2.266
				C77.764,19.153,76.756,18.136,75.516,18.136z"/>
			<path d="M55.93-0.315c-1.239,0-2.248,1.017-2.248,2.266c0,1.25,1.008,2.266,2.248,2.266c1.24,0,2.248-1.016,2.248-2.266
				C58.178,0.702,57.17-0.315,55.93-0.315z"/>
			<path d="M132.989-0.315c-1.239,0-2.247,1.017-2.247,2.266c0,1.25,1.008,2.266,2.247,2.266c1.24,0,2.248-1.016,2.248-2.266
				C135.237,0.702,134.229-0.315,132.989-0.315z"/>
			<path d="M171.519-0.315c-1.239,0-2.247,1.017-2.247,2.266c0,1.25,1.008,2.266,2.247,2.266c1.24,0,2.248-1.016,2.248-2.266
				C173.766,0.702,172.758-0.315,171.519-0.315z"/>
			<path d="M113.725-0.315c-1.239,0-2.248,1.017-2.248,2.266c0,1.25,1.008,2.266,2.248,2.266c1.24,0,2.248-1.016,2.248-2.266
				C115.972,0.702,114.964-0.315,113.725-0.315z"/>
			<path d="M94.46-0.315c-1.239,0-2.247,1.017-2.247,2.266c0,1.25,1.008,2.266,2.247,2.266c1.24,0,2.248-1.016,2.248-2.266
				C96.707,0.702,95.7-0.315,94.46-0.315z"/>
			<path d="M75.195-0.315c-1.239,0-2.247,1.017-2.247,2.266c0,1.25,1.008,2.266,2.247,2.266c1.24,0,2.248-1.016,2.248-2.266
				C77.443,0.702,76.435-0.315,75.195-0.315z"/>
			<path d="M152.254-0.315c-1.239,0-2.248,1.017-2.248,2.266c0,1.25,1.008,2.266,2.248,2.266c1.24,0,2.248-1.016,2.248-2.266
				C154.501,0.702,153.494-0.315,152.254-0.315z"/>
			<path d="M55.609-18.766c-1.239,0-2.247,1.017-2.247,2.266c0,1.25,1.008,2.266,2.247,2.266c1.24,0,2.248-1.016,2.248-2.266
				C57.857-17.749,56.849-18.766,55.609-18.766z"/>
			<path d="M151.933-18.766c-1.239,0-2.248,1.017-2.248,2.266c0,1.25,1.008,2.266,2.248,2.266c1.24,0,2.247-1.016,2.247-2.266
				C154.18-17.749,153.173-18.766,151.933-18.766z"/>
			<path d="M74.874-18.766c-1.239,0-2.247,1.017-2.247,2.266c0,1.25,1.008,2.266,2.247,2.266c1.24,0,2.248-1.016,2.248-2.266
				C77.122-17.749,76.114-18.766,74.874-18.766z"/>
			<path d="M113.403-18.766c-1.239,0-2.247,1.017-2.247,2.266c0,1.25,1.008,2.266,2.247,2.266c1.24,0,2.248-1.016,2.248-2.266
				C115.651-17.749,114.643-18.766,113.403-18.766z"/>
			<path d="M94.139-18.766c-1.239,0-2.248,1.017-2.248,2.266c0,1.25,1.008,2.266,2.248,2.266c1.24,0,2.248-1.016,2.248-2.266
				C96.386-17.749,95.379-18.766,94.139-18.766z"/>
			<path d="M132.668-18.766c-1.239,0-2.248,1.017-2.248,2.266c0,1.25,1.008,2.266,2.248,2.266c1.24,0,2.248-1.016,2.248-2.266
				C134.916-17.749,133.908-18.766,132.668-18.766z"/>
			<path d="M190.462-18.766c-1.239,0-2.248,1.017-2.248,2.266c0,1.25,1.008,2.266,2.248,2.266c1.246,0,2.247-1.016,2.247-2.266
				C192.71-17.749,191.708-18.766,190.462-18.766z"/>
			<path d="M171.198-18.766c-1.239,0-2.248,1.017-2.248,2.266c0,1.25,1.008,2.266,2.248,2.266c1.246,0,2.247-1.016,2.247-2.266
				C173.445-17.749,172.444-18.766,171.198-18.766z"/>
			<path d="M74.553-32.685c1.24,0,2.247-1.016,2.247-2.266c0-1.249-1.008-2.266-2.247-2.266c-1.239,0-2.248,1.017-2.248,2.266
				C72.305-33.701,73.314-32.685,74.553-32.685z"/>
			<path d="M55.288-32.685c1.24,0,2.248-1.016,2.248-2.266c0-1.249-1.008-2.266-2.248-2.266c-1.239,0-2.248,1.017-2.248,2.266
				C53.041-33.701,54.049-32.685,55.288-32.685z"/>
			<path d="M190.141-32.685c1.24,0,2.247-1.016,2.247-2.266c0-1.249-1.008-2.266-2.247-2.266c-1.239,0-2.248,1.017-2.248,2.266
				C187.894-33.701,188.902-32.685,190.141-32.685z"/>
			<path d="M132.347-32.685c1.24,0,2.247-1.016,2.247-2.266c0-1.249-1.008-2.266-2.247-2.266c-1.239,0-2.248,1.017-2.248,2.266
				C130.1-33.701,131.108-32.685,132.347-32.685z"/>
			<path d="M151.612-32.685c1.24,0,2.247-1.016,2.247-2.266c0-1.249-1.008-2.266-2.247-2.266c-1.239,0-2.248,1.017-2.248,2.266
				C149.364-33.701,150.373-32.685,151.612-32.685z"/>
			<path d="M170.876-32.685c1.24,0,2.247-1.016,2.247-2.266c0-1.249-1.008-2.266-2.247-2.266c-1.239,0-2.248,1.017-2.248,2.266
				C168.629-33.701,169.637-32.685,170.876-32.685z"/>
			<path d="M93.818-32.685c1.24,0,2.247-1.016,2.247-2.266c0-1.249-1.008-2.266-2.247-2.266c-1.239,0-2.248,1.017-2.248,2.266
				C91.57-33.701,92.578-32.685,93.818-32.685z"/>
			<path d="M209.406-32.685c1.246,0,2.247-1.016,2.247-2.266c0-1.249-1.001-2.266-2.247-2.266c-1.239,0-2.248,1.017-2.248,2.266
				C207.158-33.701,208.167-32.685,209.406-32.685z"/>
			<path d="M113.082-32.685c1.24,0,2.248-1.016,2.248-2.266c0-1.249-1.008-2.266-2.248-2.266c-1.239,0-2.248,1.017-2.248,2.266
				C110.835-33.701,111.843-32.685,113.082-32.685z"/>
		</g>
		
			<rect x="64.177" y="32.771" style="clip-path:url(#SVGID_00000110455422422122808460000009787263207542410121_);fill:#F2CB5F;" width="41.409" height="147.668"/>
	</g>
</g>
</svg>
