<?xml version="1.0" encoding="utf-8"?>
<!-- Generator: Adobe Illustrator 27.5.0, SVG Export Plug-In . SVG Version: 6.00 Build 0)  -->
<svg version="1.1" xmlns="http://www.w3.org/2000/svg" xmlns:xlink="http://www.w3.org/1999/xlink" x="0px" y="0px"
	 viewBox="0 0 1700 2400" style="enable-background:new 0 0 1700 2400;" xml:space="preserve">
<g id="BACKGROUND">
	<rect style="fill:#FAF7F2;" width="1700" height="2400"/>
</g>
<g id="OBJECTS">
	<g>
		<path style="fill:#AEC0C0;" d="M1048.589,976.679c-9.49-24.773,2.866-49.201,6.237-73.984c3.92-28.812-5.984-52.216-32.319-62.686
			c-26.072-10.366-48.176-6.675-57.417-40.008c-7.292-26.303-4.187-56.675-19.238-80.224
			c-15.124-23.664-37.747-21.627-58.984-34.391c-25.363-15.244-32.358-50.292-62.564-60.157
			c-25.457-8.314-47.821,5.686-70.518,15.822c-30.782,13.747-56.559,12.026-81.372-12.706
			c-21.014-20.944-36.134-47.89-48.986-74.952c-14.905-31.385-18.949-61.952-19.606-96.628
			c-0.536-28.263,0.011-57.799-13.861-83.061c-11.925-21.715-41.515-30.2-48.914-52.363c-9.265-27.751-2.05-54.888-19.065-80.897
			c-18.648-28.505-46.555-43.516-78.7-46.538c-25.253-2.374-47.264-2.323-65.62-23.857c-20.406-23.94-35.993-62.752-42.132-94.22
			c-2.683-13.753-3.457-27.711-3.614-41.713c-0.095-8.44,2.633-22.868,2.154-34.115H116.888
			c0.944,69.902,18.923,133.306,56.848,191.929c39.29,60.733,93.187,98.689,151.087,137.361
			c27.103,18.103,67.583,37.957,86.443,66.624c17.972,27.317,8.172,67.45,3.502,97.71c-10.739,69.578-3.005,146.955,42.247,202.498
			c19.718,24.202,45.988,41.518,74.98,50.317c26.502,8.043,56.759,2.968,82.124,13.334c24.394,9.969,40.604,39.133,62.689,54.449
			c24.564,17.034,52.395,30.027,80.309,39.498c52.223,17.719,110.606,18.003,129.651,83.509
			c16.538,56.883-0.406,123.531,4.896,182.286c5.206,57.692,25.923,119.054,84.677,134.911
			c52.034,14.043,110.024-4.104,138.816-53.167c27.432-46.746,32.408-112.377-3.539-155.617
			C1091.866,1021.88,1060.322,1007.309,1048.589,976.679z"/>
		<path style="fill:#FBDED0;" d="M847.299,1121.61c-13.484-40.611-3.934-82.197-6.126-124.092
			c-1.998-38.186-11.056-73.428-43.717-94.192c-29.599-18.817-68.39-27.861-101.178-13.132
			c-32.289,14.505-51.087,51.449-57.829,86.28c-7.653,39.536-40.788,60.481-70.948,82.361
			c-32.131,23.31-65.569,44.168-105.131,47.882c-38.914,3.653-76.275-11.896-114.398,1.496
			c-35.756,12.56-67.935,36.46-106.307,39.359c-35.193,2.659-75.487-5.632-102.749-30.903
			c-25.802-23.917-32.886-61.152-66.473-76.96c-17.412-8.195-35.111-9.959-52.297-0.239c-3.259,1.843-12.248,11.02-20.145,17.876
			v405.828c89.144,4.059,175.614,33.339,265.597,25.782c93.16-7.824,158.257-56.806,221.555-126.017
			c25.503-27.885,52.325-65.966,89.969-75.102c37.627-9.132,76.755,8.956,112.593,18.894c64.411,17.861,148.62,4.265,171.158-72.778
			C872.504,1194.192,859.702,1158.966,847.299,1121.61z"/>
		<path style="fill:#FBB158;" d="M640.88,1688.547c-24.375-16.339-51.651-17.974-79.671-18.014
			c-27.211-0.038-50.313-4.062-74.577-17.738c-25.756-14.516-41.915-26.739-43.805-59.091c-1.484-25.397,0.093-53.189-14.584-75.07
			c-36.192-53.955-99.825,0.739-135.846,25.739c-41.1,28.525-109.125,43.849-156.162,24.554c-27-11.076-47.369-35.243-73.771-47.954
			c-20.694-9.964-40.819-12.601-62.464-13.478v367.713c61.846,1.953,120.276-8.388,181.389-20.635
			c61.141-12.252,132.207-18.692,189.422,12.825c24.705,13.609,43.589,36.516,68.862,49.051
			c23.717,11.764,49.239,12.362,74.442,5.787c49.81-12.996,111.025-46.02,142.481-90.136
			C687.059,1789.38,686.168,1718.905,640.88,1688.547z"/>
		<path style="fill:#FFA188;" d="M1700,813.031c-10.075-2.37-26.117-10.335-30.8-11.897c-16.638-5.55-33.115-11.418-49.398-18.043
			c-23.504-9.562-56.285-14.916-68.406,15.391c-11.591,28.982,8.307,61.565-1.417,91.451c-9.207,28.298-39.843,36.45-64.978,38.052
			c-31.467,2.005-59.345-6.288-89.556-13.66c-26.228-6.4-54.692-5.324-79.848-15.788c-51.085-21.25-102.336-71.03-159.951-68.468
			c-53.141,2.363-83.853,53.87-72.799,106.434c12.46,59.244,53.949,76.549,101.576,99.208c24.297,11.56,48.274,25.3,69.425,42.545
			c22.409,18.271,29.985,37.598,39.024,64.938c18.562,56.146,48.67,93.969,101.958,115.639
			c62.403,25.377,111.398,5.363,163.031-34.469c45.801-35.333,86.764-66.635,142.139-79.521V813.031z"/>
		<path style="fill:#AEC0C0;" d="M481.551,2096.822c-14.04-18.451-34.128-29.453-48.451-47.196
			c-14.44-17.889-15.671-38.57-18.836-60.806c-6.067-42.63-31.149-89.173-72.432-100.835
			c-40.846-11.539-105.823-11.282-135.994,25.464c-33.116,40.333-22.547,88.878,5.422,128.007
			c25.222,35.285,69.213,76.6,73.924,123.01c4.82,47.482-29.563,81.35-69.234,94.415c-47.582,15.67-97.79,24.152-143.254,46.744
			c-21.42,10.644-38.621,26.443-53.876,45.383c-2.063,2.561-10.967,16.504-18.82,27.651V2400h478.655
			c4.811-19.493,22.401-43.973,28.391-57.667c12.16-27.797,17.496-58.094,17.838-88.608
			C525.48,2200.509,513.768,2139.159,481.551,2096.822z"/>
		<path style="fill:#AEC0C0;" d="M1700,0h-231.394c-15.882,28.837-38.621,53.229-55.896,81.087
			c-17.344,27.969-30.572,58.49-39.628,90.518c-18.554,65.616-17.238,137.406,15.869,197.798
			c29.705,54.186,83.842,91.731,140.683,106.679c29.702,7.811,60.94,10.652,91.267,5.646c16.507-2.724,32.743-7.449,48.398-13.58
			c6.549-2.564,20.606-12.731,30.701-16.296V0z"/>
		<path style="fill:#AEC0C0;" d="M1700,2400v-152.669c-28.703-20.847-57.321-44.357-88.484-60.279
			c-12.939-6.611-26.899-10.642-38.836-19.363c-13.848-10.116-22.384-24.562-33.635-37.334
			c-27.819-31.581-52.788-30.852-90.375-25.889c-39.268,5.185-77.199-17.198-116.03-5.153
			c-32.463,10.069-42.022,35.168-60.22,61.624c-19.149,27.839-56.002,46.888-82.282,66.459
			c-28.51,21.232-53.353,41.356-68.581,75.575c-11.507,25.857-20.614,66.026-13.441,97.029H1700z"/>
		<path style="fill:#FBDED0;" d="M1339.492,328.699c-12.443-18.187-28.999-33.862-39.78-53.224
			c-24.896-44.714,11.846-110.208,33.247-149.178C1354.47,87.124,1377.306,46.254,1377.151,0h-139.535
			c-4.104,22.718-16.033,47.521-24.893,66.965c-12.185,26.741-27.403,51.523-44.594,74.952
			c-32.047,43.675-75.393,79.767-101.59,127.883c-49.267,90.486-39.25,208.859,32.565,282.885
			c67.057,69.121,181.926,59.192,242.564-14.657c31.973-38.938,44.122-88.066,31.224-138.089
			C1366.235,374.116,1354.284,350.318,1339.492,328.699z"/>
		<path style="fill:#FBDED0;" d="M390.993,512.176c9.107-42.011,7.259-81.396-25.709-111.069
			c-31.081-27.975-73.234-25.739-105.504-0.5c-34.081,26.655-33.94,69.799-59.125,102.09
			c-24.241,31.081-59.311,40.906-96.237,38.056c-23.071-1.781-45.042-8.426-66.27-17.929c-9.386-4.202-18.587-8.837-27.648-13.769
			c-2.4-1.306-6.343-4.271-10.5-6.944v223.31c8.297,0.679,18.099,0.49,22.809,1.47c10.194,2.121,20.243,5.149,30.005,8.895
			c23.056,8.847,44.432,21.647,65.18,35.324c39.044,25.738,77.871,55.735,126.365,52.585c42.962-2.791,79.618-31.322,107.235-64.403
			c29.436-35.26,31.962-72.627,26.699-117.907c-2.666-22.938-5.365-45.977-1.487-68.978
			C380.231,552.091,386.633,532.287,390.993,512.176z"/>
		<path style="fill:#FBB158;" d="M1066.218,2400c0.011-45.663-9.378-85.354-29.725-127.336
			c-20.511-42.32-43.954-82.832-45.914-131.806c-1.636-40.863,15.89-78.167,2.8-118.847c-11.904-36.992-40.393-53.233-76.293-44.168
			c-34.69,8.76-74.651,30.781-89.796,66.992c-16.241,38.83,5.487,83.317,7.442,123.105c2.091,42.553,4.509,81.937-27.122,113.402
			c-25.518,25.385-60.866,38.049-94.693,44.07c-62.04,11.042-163.265-0.896-186.281,74.588H1066.218z"/>
		<path style="fill:#AEC0C0;" d="M1700,1471.481c-31.691,0.495-65.293,15.4-87.596,38.722
			c-25.162,26.312-30.16,66.912-26.752,102.65c3.533,37.057,18.874,71.384,23.354,108.341c4.679,38.597-0.852,75.849-14.047,111.95
			c-25.885,70.817-68.551,143.511-30.153,219.146c31.382,61.816,90.363,98.305,135.195,147.483V1471.481z"/>
		<path style="fill:#AEC0C0;" d="M229.802,310.374c-20.411-59.8-85.675-68.903-113.781-121.198
			c-15.813-29.423-18.806-63.249-21.732-96.228C91.437,60.817,87.179,30.777,79.407,0H0v420.751
			c10.184,7.742,23.169,19.077,26.042,20.926c13.293,8.555,27.409,15.595,42.35,20.273c28.29,8.856,58.233,7.88,86.333-1.468
			C216.09,440.07,252.557,377.045,229.802,310.374z"/>
		<path style="fill:#FBB158;" d="M234.416,2118.831c-6.662-15.908-16.042-30.082-27.64-42.41
			c-11.383-12.1-27.901-20.628-38.067-33.63c-19.412-24.826-15.105-67.511-26.214-96.666
			c-11.388-29.887-35.936-48.789-66.492-51.058c-15.26-1.133-30.949,1.698-45.816,5.042c-5.407,1.216-19.297,7.637-30.186,10.712
			v399.783c8.488-10.784,18.523-24.594,20.849-27.078c9.527-10.179,20.38-18.382,32.856-24.051
			c33.369-15.165,68.849-7.599,103.848-11.175c28.562-2.919,65.125-12.423,81.021-40.383
			C253.49,2181.68,245.402,2145.064,234.416,2118.831z"/>
		<path style="fill:#FBDED0;" d="M1700,1165.992c-31.08,2.029-65.498,42.058-81.842,64.126
			c-23.254,31.398-38.237,53.53-73.864,69.656c-36.45,16.499-71.617,18.945-109.681,26.642
			c-33.278,6.73-54.224,31.059-61.279,65.432c-14.72,71.722,24.02,170.758,107.043,135.45
			c36.881-15.685,70.095-40.914,106.95-57.276c18.469-8.199,37.508-14.876,57.171-19.033c9.804-2.073,19.692-3.566,29.676-4.237
			c7.248-0.487,17.409,1.544,25.826,1.255V1165.992z"/>
		<path style="fill:#AEC0C0;" d="M869.668,0c-0.532,7.001-1.935,14.236-1.713,20.978c0.46,14.015,2.334,28.291,5.446,41.919
			c5.225,22.886,14.485,45.057,27.978,63.86c27.141,37.821,69.6,59.711,114.555,57.991c41.593-1.592,82.688-21.709,108.89-56.143
			C1148.965,96.88,1167.721,42.508,1158.118,0H869.668z"/>
		<path style="fill:#FBB158;" d="M1700,475.136c-3.089,6.214-5.853,12.757-10.32,17.868c-7.168,8.201-16.299,12.087-26.176,15.419
			c-25.562,8.623-52.595,9.762-78.618,16.174c-46.674,11.5-88.215,42.197-93.985,95.822c-5.186,48.192,20.53,97.535,63.853,115.412
			c25.027,10.328,52.298,9.873,78.238,15.904c13.508,3.14,26.35,7.978,38.949,13.973c7.835,3.728,18.369,11.984,28.058,15.466
			V475.136z"/>
		<path style="fill:#FFA188;" d="M980.524,216.047c-28.734-14.193-59.861-13.643-85.576-35.52
			C843.054,136.379,839.911,64.557,842.122,0h-67.355c-1.508,5.748-4.002,11.906-4.712,15.212
			c-2.218,10.324-3.968,20.758-5.371,31.238c-3.006,22.445-4.211,44.814-1.828,67.407c3.922,37.192,15.262,73.346,35.445,104.273
			c20.062,30.743,44.316,51.637,73.439,72.013c10.232,7.159,24.834,15.539,27.629,28.383c3.171,14.568-4.355,30.337,0.836,45.823
			c12.26,36.578,49.724,31.607,74.593,12.876c26.103-19.661,35.968-51.857,42.975-83.634
			C1024.961,260.992,1009.079,230.152,980.524,216.047z"/>
		<path style="fill:#FFA188;" d="M745.216,84.033c1.239-18.595,3.857-37.57,6.922-55.938c0.77-4.615,5.819-18.089,7.947-28.094
			H658.391c-7.751,28.651-20.317,59.645-32.308,85.489c-14.137,30.467-38.157,54.493-51.353,85.025
			c-24.689,57.122,7.699,128.459,71.987,124.086c56.727-3.859,118.6-53.848,114.04-117.681
			C758.457,144.706,743.031,116.836,745.216,84.033z"/>
		<path style="fill:#FBB158;" d="M354.798,0c8.399,72.109,42.123,157.446,124.591,152.082c37.211-2.42,68.403-27.322,90.298-57.679
			c17.68-24.512,38-61.364,40.777-94.404H354.798z"/>
		<path style="fill:#FBDED0;" d="M0,748.118v285.988c9.407-9.285,18.211-24.137,24.128-31.383
			c12.046-14.752,24.088-29.507,36.116-44.275c20.988-25.769,51.547-54.099,55.489-89.681C123.808,795.879,60.327,754.568,0,748.118
			z"/>
		<path style="fill:#FFA188;" d="M1225.742,1644.001c-56.866-0.006-108.505-28.841-149.376-68.487
			c-39.618-38.43-69.264-79.495-126.407-82.171c-43.96-2.058-112.73-5.342-130.215-58.203
			c-15.712-47.501,23.832-124.057,69.662-136.141c21.249-5.603,44.852-5.366,66.599-7.304c30.048-2.678,58.427-9.16,87.65-16.692
			c48.878-12.598,100.407-17.712,124.944-71.448c9.271-20.304,16.927-43.374,40.47-48.915c26.851-6.32,47.279,14.31,62.239,34.635
			c30.008,40.769,79.528,87.386,72.459,143.446c-3.783,29.997-12.668,60.014-12.646,90.486c0.023,33.16,11.662,66.505,5.337,99.777
			C1325.905,1578.499,1286.205,1645.631,1225.742,1644.001z"/>
		<path style="fill:#FBB158;" d="M1375.931,1767.22c-0.425,56.338-28.088,99.033-54.586,144.802
			c-13.719,23.697-13.268,47.471-13.424,74.345c-0.173,29.934-4.159,58.594-15.224,86.357c-7.831,19.651-18.214,36.91-36.221,47.539
			c-8.592,5.072-19.55,6.635-27.422,12.835c-8.939,7.042-12.891,19.198-19.272,28.514c-25.396,37.08-78.053,61.377-121.102,50.914
			c-49.59-12.052-55.86-80.975-48.908-124.731c3.844-24.197,9.432-49.348,7.07-74.05c-2.576-26.929-26.567-39.147-32.8-64.543
			c-13.209-53.827,69.783-74.713,100.993-95.042c17.444-11.363,35.771-26.705,46.815-45.22
			c12.942-21.696,12.087-46.892,17.353-71.095c5.598-25.729,19.871-46.985,42.56-58.527c22.344-11.366,51.294-22.714,75.64-27.338
			C1352.28,1641.556,1373.454,1722.968,1375.931,1767.22z"/>
		<path style="fill:#FFA188;" d="M276.697,1096.842c-46.029-1.315-89.319-9.816-119.951-49.169
			c-26.67-34.264-42.686-86.066-28.02-129.621c6.265-18.607,19.003-36.461,36.822-43.815c23.568-9.726,44.206,3.347,67.492,4.656
			c17.397,0.978,35.622-10.535,50.915-18.544c21.826-11.43,41.672-26.111,59.52-43.623c27.817-27.293,56.547-87.419,101.277-80.41
			c19.237,3.014,35.201,18.025,52.663,26.073c21.895,10.091,45.274,13.524,67.596,21.966c40.299,15.241,68.036,42.457,75.725,88.08
			c8.167,48.46-20.196,91.324-55.216,119.619c-42.161,34.064-94.682,46.561-144.02,64.136
			C386.975,1075.612,334.9,1095.559,276.697,1096.842z"/>
		<path style="fill:#AEC0C0;" d="M1143.841,1713.698c0.737,48.31-31.023,97.739-66.386,125.923
			c-17.218,13.723-36.047,25.84-56.967,31.928c-22.326,6.497-46.16,1.194-66.124,15.558c-16.675,11.998-28.688,30.444-44.704,43.514
			c-17.582,14.349-37.335,25.639-58.003,34.182c-45.057,18.624-88.857,19.806-130.997-7.046
			c-35.348-22.525-39.804-62.606-27.323-101.614c2.791-8.724,8.92-15.365,11.675-24.05c3.401-10.722,2.61-23.827,2.925-34.956
			c0.702-24.803,2.178-47.328,17.97-67.198c14.565-18.326,33.567-22.257,55.253-22.401c29.107-0.194,55.069-4.849,83.283-12.51
			c22.661-6.153,37.108-12.821,51.643-32.559c14.104-19.151,16.15-41.799,26.779-62.613c11.511-22.542,31.973-35.211,56.259-35.557
			c24.728-0.353,43.19,17.511,61.394,33.092c18.024,15.427,41.182,25.867,56.854,43.77
			C1134.266,1660.46,1144.239,1687.408,1143.841,1713.698z"/>
		<path style="fill:#AEC0C0;" d="M670.189,1335.187c36.796,2.103,91.423,5.359,109.063,46.623c7.849,18.36,2.479,35.407,1.673,54.43
			c-0.902,21.304,10.554,42.641,22.592,59.132c12.113,16.593,26.756,27.077,44.298,36.337c14.715,7.768,38.878,12.253,50.373,24.778
			c29.391,32.026-6.282,81.354-33.198,99.377c-88.854,59.494-163.627-51.681-250.537-53.054
			c-42.137-0.666-84.224,16.208-123.099-9.865c-40.575-27.213-44.342-76.604-32.995-121.482
			c10.785-42.656,35.527-92.868,77.778-108.026c20.247-7.264,42.138-6.939,62.566-13.55
			C622.568,1342.163,644.897,1334.353,670.189,1335.187z"/>
		<path style="fill:#FBB158;" d="M1418.608,892.907c-45.188-0.966-90.359-17.435-131.089-37.081
			c-37.928-18.294-79.41-39.015-105.227-74.955c-22.866-31.833-28.939-79.596-3.319-112.17
			c24.754-31.471,72.087-33.299,106.109-46.516c33.436-12.99,72.264-34.586,90.021-68.6c15.85-30.361,29.932-70.606,70.8-62.085
			c43.442,9.058,42.545,55.726,30.967,91.252c-12.189,37.4-37.601,77.3-29.308,118.536c8.676,43.139,51.508,71.909,53.761,115.662
			C1503.899,866.954,1461.998,893.574,1418.608,892.907z"/>
		<path style="fill:#FBB158;" d="M1565.084,1735.225c0,48.027-5.476,88.999-19.51,134.791
			c-13.533,44.158-9.695,88.474-19.776,132.742c-8.591,37.726-35.893,68.783-73.56,72.736
			c-46.749,4.906-63.304-32.978-76.301-73.972c-15.099-47.623-12.857-86.326,5.205-132.107
			c16.218-41.106,31.635-74.932,24.707-120.637c-3.05-20.123-8.314-39.812-15.748-58.617c-7.751-19.608-20.923-38.018-21.5-60.034
			c-1.183-45.153,43.154-48.327,73.509-58.839c39.972-13.841,82.037-34.958,108.799,14.004
			c12.174,22.274,11.572,47.819,12.647,72.67C1564.672,1683.708,1565.744,1709.447,1565.084,1735.225z"/>
		<path style="fill:#FBDED0;" d="M680.951,2280.142c-33.274-0.726-69.733-17.137-92.65-42.751
			c-25.762-28.794-24.567-69.535-37.137-104.89c-6.009-16.899-12.591-33.287-24.668-46.344
			c-12.436-13.447-28.633-22.039-41.096-35.38c-24.515-26.243-30.117-72.732,2.867-94.56c30.917-20.46,68.827-19.394,103.538-29.405
			c31.449-9.071,72.699-16.298,89.855,21.348c7.191,15.779,5.363,33.49,10.129,49.829c5.01,17.175,17.95,28.981,30.568,40.21
			c27.369,24.356,55.98,55.718,71.116,90.595c15.961,36.777,10.131,86.094-15.843,116.473
			C753.216,2273.823,715.687,2280.716,680.951,2280.142z"/>
		<path style="fill:#FFA188;" d="M1133.284,663.237c1.235,19.389-2.448,37.185,0.177,56.86c2.355,17.658,3.035,34.422-5.641,50.397
			c-17.941,33.035-60.03,46.581-91.964,29.471c-31.822-17.05-42.382-51.221-43.543-86.728c-1.066-32.617-5.659-81.984-41.341-93.146
			c-17.803-5.57-35.906-4.617-52.881-13.594c-15.309-8.096-28.374-21.282-38.581-35.669c-20.751-29.251-29.903-70.379-7.571-101.933
			c8.626-12.188,20.025-18.054,33.438-22.392c17.586-5.687,27.942-14.843,43.345-24.303c27.282-16.756,66.661-6.421,82.14,22.457
			c10.361,19.329,11.303,43.213,18.361,63.943c6.639,19.501,16.696,37.199,31.177,51.334
			C1090.391,589.205,1136.606,612.044,1133.284,663.237z"/>
		<path style="fill:#FBDED0;" d="M660.115,430.204c-0.472-71.333,43.75-169.057,124.019-160.583
			c74.174,7.831,110.74,91.316,75.127,157.805c-7.767,14.501-18.014,24.88-30.564,34.698c-11.169,8.738-28.903,17.116-33.101,31.861
			c-4.976,17.482-1.473,36.7-7.926,54.86c-5.708,16.064-14.208,32.512-29.533,40.189
			C686.973,624.687,662.251,474.328,660.115,430.204z"/>
	</g>
</g>
</svg>
