<?xml version="1.0" encoding="utf-8"?>
<!-- Generator: Adobe Illustrator 27.5.0, SVG Export Plug-In . SVG Version: 6.00 Build 0)  -->
<svg version="1.1" xmlns="http://www.w3.org/2000/svg" xmlns:xlink="http://www.w3.org/1999/xlink" x="0px" y="0px"
	 viewBox="0 0 366.449 500" style="enable-background:new 0 0 366.449 500;" xml:space="preserve">
<g id="_x39_8">
	<g>
		<g>
			<linearGradient id="SVGID_1_" gradientUnits="userSpaceOnUse" x1="4.635600e-06" y1="250.0002" x2="366.4492" y2="250.0002">
				<stop  offset="0" style="stop-color:#000948"/>
				<stop  offset="1" style="stop-color:#285998"/>
			</linearGradient>
			<rect x="0" y="0.002" style="fill:url(#SVGID_1_);" width="366.449" height="499.996"/>
			<g>
				<rect x="283.368" y="416.939" style="fill:#E6F5FF;" width="66.77" height="66.771"/>
				
					<linearGradient id="SVGID_00000052826718824711379870000013919201379811361946_" gradientUnits="userSpaceOnUse" x1="249.7065" y1="-198.7939" x2="315.7582" y2="-198.7939" gradientTransform="matrix(0.9784 0.2069 -0.2069 0.9784 -3.3861 565.9736)">
					<stop  offset="0" style="stop-color:#000948"/>
					<stop  offset="1" style="stop-color:#285998"/>
				</linearGradient>
				<path style="fill:url(#SVGID_00000052826718824711379870000013919201379811361946_);" d="M283.368,416.939h66.77
					c0,18.44-14.947,33.388-33.383,33.388C298.315,450.326,283.368,435.379,283.368,416.939z"/>
			</g>
			<g>
				<rect x="216.598" y="416.939" style="fill:#E6F5FF;" width="66.771" height="66.771"/>
				
					<linearGradient id="SVGID_00000138546115893464361980000005290306141729708692_" gradientUnits="userSpaceOnUse" x1="27.9435" y1="-787.985" x2="91.8959" y2="-787.985" gradientTransform="matrix(0.9154 0.4026 -0.4026 0.9154 -124.83 1123.8389)">
					<stop  offset="0" style="stop-color:#000948"/>
					<stop  offset="1" style="stop-color:#285998"/>
				</linearGradient>
				<path style="fill:url(#SVGID_00000138546115893464361980000005290306141729708692_);" d="M216.598,416.939h66.771
					c0,18.438-14.947,33.386-33.383,33.386C231.545,450.324,216.598,435.376,216.598,416.939z"/>
			</g>
			<g>
				<rect x="149.827" y="416.939" style="fill:#E6F5FF;" width="66.771" height="66.771"/>
				
					<linearGradient id="SVGID_00000003075454757290350540000013905902600106853771_" gradientUnits="userSpaceOnUse" x1="-5387.481" y1="-1150.9312" x2="-5339.9189" y2="-1150.9312" gradientTransform="matrix(-0.9055 0.4243 -0.4243 -0.9055 -5137.9502 1686.6212)">
					<stop  offset="0" style="stop-color:#009892"/>
					<stop  offset="1" style="stop-color:#42E8E2"/>
				</linearGradient>
				<path style="fill:url(#SVGID_00000003075454757290350540000013905902600106853771_);" d="M216.598,416.939v66.771
					c-18.439,0-33.388-14.947-33.388-33.385C183.21,431.886,198.158,416.939,216.598,416.939z"/>
			</g>
			<g>
				
					<linearGradient id="SVGID_00000047774544029005244190000005414322454517161391_" gradientUnits="userSpaceOnUse" x1="-909.366" y1="2455.1799" x2="-814.9376" y2="2455.1799" gradientTransform="matrix(0.7071 -0.7071 0.7071 0.7071 -1009.9885 -1895.3615)">
					<stop  offset="0" style="stop-color:#009892"/>
					<stop  offset="1" style="stop-color:#42E8E2"/>
				</linearGradient>
				
					<rect x="83.057" y="416.939" style="fill:url(#SVGID_00000047774544029005244190000005414322454517161391_);" width="66.77" height="66.771"/>
				
					<linearGradient id="SVGID_00000101089713927724614300000007688605895170884492_" gradientUnits="userSpaceOnUse" x1="-904.2964" y1="2475.9985" x2="-847.3051" y2="2475.9985" gradientTransform="matrix(0.7071 -0.7071 0.7071 0.7071 -1015.0583 -1893.2618)">
					<stop  offset="0" style="stop-color:#275981"/>
					<stop  offset="1" style="stop-color:#77A9D1"/>
				</linearGradient>
				<path style="fill:url(#SVGID_00000101089713927724614300000007688605895170884492_);" d="M149.827,483.709h-66.77
					c0-18.436,14.947-33.385,33.383-33.385C134.879,450.324,149.827,465.273,149.827,483.709z"/>
			</g>
			<g>
				<rect x="16.287" y="416.939" style="fill:#E6F5FF;" width="66.77" height="66.771"/>
				
					<linearGradient id="SVGID_00000039126128110412216750000017293590410911626401_" gradientUnits="userSpaceOnUse" x1="-5549.2617" y1="1279.631" x2="-5502.3433" y2="1279.631" gradientTransform="matrix(-0.9143 -0.4051 0.4051 -0.9143 -5497.2285 -620.9248)">
					<stop  offset="0" style="stop-color:#009892"/>
					<stop  offset="1" style="stop-color:#42E8E2"/>
				</linearGradient>
				<path style="fill:url(#SVGID_00000039126128110412216750000017293590410911626401_);" d="M83.057,416.939v66.771
					c-18.44,0-33.387-14.947-33.387-33.385C49.669,431.886,64.617,416.939,83.057,416.939z"/>
			</g>
			<g>
				
					<linearGradient id="SVGID_00000137129196217119780870000015527879608427977888_" gradientUnits="userSpaceOnUse" x1="-715.5851" y1="2480.3745" x2="-621.1551" y2="2480.3745" gradientTransform="matrix(0.7071 -0.7071 0.7071 0.7071 -964.5109 -1842.925)">
					<stop  offset="0" style="stop-color:#009892"/>
					<stop  offset="1" style="stop-color:#42E8E2"/>
				</linearGradient>
				
					<rect x="283.372" y="350.166" style="fill:url(#SVGID_00000137129196217119780870000015527879608427977888_);" width="66.771" height="66.772"/>
				
					<linearGradient id="SVGID_00000030470569015015912650000015590010814376748984_" gradientUnits="userSpaceOnUse" x1="-710.5155" y1="2501.1931" x2="-653.5222" y2="2501.1931" gradientTransform="matrix(0.7071 -0.7071 0.7071 0.7071 -969.5808 -1840.8254)">
					<stop  offset="0" style="stop-color:#275981"/>
					<stop  offset="1" style="stop-color:#77A9D1"/>
				</linearGradient>
				<path style="fill:url(#SVGID_00000030470569015015912650000015590010814376748984_);" d="M350.143,416.939h-66.771
					c0-18.44,14.948-33.387,33.383-33.387C335.195,383.552,350.143,398.499,350.143,416.939z"/>
			</g>
			<g>
				
					<linearGradient id="SVGID_00000170972432311298372880000009666850637859292297_" gradientUnits="userSpaceOnUse" x1="-135.2768" y1="-1146.7949" x2="-43.8984" y2="-1146.7949" gradientTransform="matrix(0.8625 0.5061 -0.5061 0.8625 -253.1363 1418.0032)">
					<stop  offset="0" style="stop-color:#009892"/>
					<stop  offset="1" style="stop-color:#42E8E2"/>
				</linearGradient>
				
					<rect x="216.602" y="350.166" style="fill:url(#SVGID_00000170972432311298372880000009666850637859292297_);" width="66.77" height="66.772"/>
				<path style="fill:#E6F5FF;" d="M216.602,350.166h66.77c0,18.439-14.947,33.386-33.387,33.386
					C231.55,383.552,216.602,368.604,216.602,350.166z"/>
			</g>
			<g>
				
					<linearGradient id="SVGID_00000061435027205618511180000017860083375828556469_" gradientUnits="userSpaceOnUse" x1="-5689.9878" y1="863.1454" x2="-5608.314" y2="863.1454" gradientTransform="matrix(-0.9665 -0.2567 0.2567 -0.9665 -5498.2568 -232.3547)">
					<stop  offset="0" style="stop-color:#009892"/>
					<stop  offset="1" style="stop-color:#42E8E2"/>
				</linearGradient>
				
					<rect x="149.831" y="350.166" style="fill:url(#SVGID_00000061435027205618511180000017860083375828556469_);" width="66.771" height="66.772"/>
				<path style="fill:#E6F5FF;" d="M216.602,416.939h-66.771c0-18.44,14.948-33.387,33.383-33.387
					C201.655,383.552,216.602,398.499,216.602,416.939z"/>
			</g>
			<g>
				
					<linearGradient id="SVGID_00000043417906204561392320000002659058427814835886_" gradientUnits="userSpaceOnUse" x1="-882.4256" y1="2399.5662" x2="-787.9973" y2="2399.5662" gradientTransform="matrix(0.7071 -0.7071 0.7071 0.7071 -989.7092 -1903.76)">
					<stop  offset="0" style="stop-color:#275981"/>
					<stop  offset="1" style="stop-color:#77A9D1"/>
				</linearGradient>
				
					<rect x="83.061" y="350.166" style="fill:url(#SVGID_00000043417906204561392320000002659058427814835886_);" width="66.77" height="66.771"/>
				
					<linearGradient id="SVGID_00000150070570113538216180000014613655647991361443_" gradientUnits="userSpaceOnUse" x1="-842.8911" y1="2413.2144" x2="-785.8973" y2="2413.2144" gradientTransform="matrix(0.7071 -0.7071 0.7071 0.7071 -987.6096 -1898.6906)">
					<stop  offset="0" style="stop-color:#000948"/>
					<stop  offset="1" style="stop-color:#285998"/>
				</linearGradient>
				<path style="fill:url(#SVGID_00000150070570113538216180000014613655647991361443_);" d="M149.831,350.166v66.771
					c-18.439,0-33.387-14.947-33.387-33.385S131.392,350.166,149.831,350.166z"/>
			</g>
			<g>
				
					<linearGradient id="SVGID_00000042698076378621828260000006871154169094903437_" gradientUnits="userSpaceOnUse" x1="-938.0417" y1="2372.6309" x2="-843.6107" y2="2372.6309" gradientTransform="matrix(0.7071 -0.7071 0.7071 0.7071 -998.1091 -1924.0383)">
					<stop  offset="0" style="stop-color:#275981"/>
					<stop  offset="1" style="stop-color:#77A9D1"/>
				</linearGradient>
				
					<rect x="16.289" y="350.166" style="fill:url(#SVGID_00000042698076378621828260000006871154169094903437_);" width="66.772" height="66.772"/>
				
					<linearGradient id="SVGID_00000104679098038657865280000011036239446817648018_" gradientUnits="userSpaceOnUse" x1="-932.9718" y1="2393.4492" x2="-875.9774" y2="2393.4492" gradientTransform="matrix(0.7071 -0.7071 0.7071 0.7071 -1003.1789 -1921.9382)">
					<stop  offset="0" style="stop-color:#000948"/>
					<stop  offset="1" style="stop-color:#285998"/>
				</linearGradient>
				<path style="fill:url(#SVGID_00000104679098038657865280000011036239446817648018_);" d="M83.061,416.939H16.289
					c0-18.44,14.947-33.387,33.385-33.387C68.114,383.552,83.061,398.499,83.061,416.939z"/>
			</g>
			<g>
				
					<linearGradient id="SVGID_00000176730160400824535090000010556824618904252336_" gradientUnits="userSpaceOnUse" x1="-688.6437" y1="2424.7607" x2="-594.2157" y2="2424.7607" gradientTransform="matrix(0.7071 -0.7071 0.7071 0.7071 -944.2311 -1851.3239)">
					<stop  offset="0" style="stop-color:#009892"/>
					<stop  offset="1" style="stop-color:#42E8E2"/>
				</linearGradient>
				
					<rect x="283.377" y="283.395" style="fill:url(#SVGID_00000176730160400824535090000010556824618904252336_);" width="66.771" height="66.77"/>
				
					<linearGradient id="SVGID_00000079483227192702807840000003120175209226035333_" gradientUnits="userSpaceOnUse" x1="-683.5737" y1="2445.5786" x2="-626.5823" y2="2445.5786" gradientTransform="matrix(0.7071 -0.7071 0.7071 0.7071 -949.301 -1849.2238)">
					<stop  offset="0" style="stop-color:#275981"/>
					<stop  offset="1" style="stop-color:#77A9D1"/>
				</linearGradient>
				<path style="fill:url(#SVGID_00000079483227192702807840000003120175209226035333_);" d="M350.147,350.164h-66.771
					c0-18.436,14.947-33.385,33.383-33.385C335.199,316.779,350.147,331.728,350.147,350.164z"/>
			</g>
			<g>
				<rect x="216.607" y="283.395" style="fill:#E6F5FF;" width="66.77" height="66.77"/>
				
					<linearGradient id="SVGID_00000016754499602872409820000013674478336058019477_" gradientUnits="userSpaceOnUse" x1="-2543.4673" y1="3180.595" x2="-2476.9089" y2="3180.595" gradientTransform="matrix(0.113 -0.9936 0.9936 0.113 -2645.2563 -2535.1853)">
					<stop  offset="0" style="stop-color:#009892"/>
					<stop  offset="1" style="stop-color:#42E8E2"/>
				</linearGradient>
				<path style="fill:url(#SVGID_00000016754499602872409820000013674478336058019477_);" d="M216.607,350.164v-66.77
					c18.435,0,33.383,14.947,33.383,33.387C249.99,335.217,235.042,350.164,216.607,350.164z"/>
			</g>
			<g>
				
					<linearGradient id="SVGID_00000156557568183949552020000015355416466213306011_" gradientUnits="userSpaceOnUse" x1="-5662.6201" y1="944.5137" x2="-5579.7559" y2="944.5137" gradientTransform="matrix(-0.9596 -0.2813 0.2813 -0.9596 -5476.5645 -358.1055)">
					<stop  offset="0" style="stop-color:#000948"/>
					<stop  offset="1" style="stop-color:#285998"/>
				</linearGradient>
				
					<rect x="149.831" y="283.395" style="fill:url(#SVGID_00000156557568183949552020000015355416466213306011_);" width="66.776" height="66.77"/>
				<path style="fill:#E6F5FF;" d="M216.607,283.395v66.77c-18.44,0-33.389-14.947-33.389-33.383
					C183.219,298.342,198.167,283.395,216.607,283.395z"/>
			</g>
			<g>
				
					<linearGradient id="SVGID_00000145772388005740707410000008828430464926635147_" gradientUnits="userSpaceOnUse" x1="-855.489" y1="2343.9512" x2="-761.0614" y2="2343.9512" gradientTransform="matrix(0.7071 -0.7071 0.7071 0.7071 -969.4304 -1912.1599)">
					<stop  offset="0" style="stop-color:#000948"/>
					<stop  offset="1" style="stop-color:#285998"/>
				</linearGradient>
				
					<rect x="83.061" y="283.395" style="fill:url(#SVGID_00000145772388005740707410000008828430464926635147_);" width="66.77" height="66.77"/>
				
					<linearGradient id="SVGID_00000008139920576584662890000000150039484205678989_" gradientUnits="userSpaceOnUse" x1="-857.5889" y1="2330.3032" x2="-800.5955" y2="2330.3032" gradientTransform="matrix(0.7071 -0.7071 0.7071 0.7071 -971.53 -1917.2292)">
					<stop  offset="0" style="stop-color:#009892"/>
					<stop  offset="1" style="stop-color:#42E8E2"/>
				</linearGradient>
				<path style="fill:url(#SVGID_00000008139920576584662890000000150039484205678989_);" d="M83.061,350.164v-66.77
					c18.44,0,33.388,14.947,33.388,33.385S101.501,350.164,83.061,350.164z"/>
			</g>
			<g>
				
					<linearGradient id="SVGID_00000144301769307189914290000000977928568134495920_" gradientUnits="userSpaceOnUse" x1="-911.1027" y1="2317.0154" x2="-816.6751" y2="2317.0154" gradientTransform="matrix(0.7071 -0.7071 0.7071 0.7071 -977.8298 -1932.4382)">
					<stop  offset="0" style="stop-color:#009892"/>
					<stop  offset="1" style="stop-color:#42E8E2"/>
				</linearGradient>
				
					<rect x="16.291" y="283.395" style="fill:url(#SVGID_00000144301769307189914290000000977928568134495920_);" width="66.77" height="66.77"/>
				
					<linearGradient id="SVGID_00000087399274392834716880000014881506634351501246_" gradientUnits="userSpaceOnUse" x1="-878.7365" y1="2296.1975" x2="-821.7444" y2="2296.1975" gradientTransform="matrix(0.7071 -0.7071 0.7071 0.7071 -972.7604 -1934.5378)">
					<stop  offset="0" style="stop-color:#275981"/>
					<stop  offset="1" style="stop-color:#77A9D1"/>
				</linearGradient>
				<path style="fill:url(#SVGID_00000087399274392834716880000014881506634351501246_);" d="M16.291,283.395h66.77
					c0,18.438-14.947,33.385-33.387,33.385C31.239,316.779,16.291,301.832,16.291,283.395z"/>
			</g>
			<g>
				<rect x="283.377" y="216.622" style="fill:#E6F5FF;" width="66.771" height="66.77"/>
				
					<linearGradient id="SVGID_00000131343978918801323100000007030984950365763498_" gradientUnits="userSpaceOnUse" x1="-1777.1428" y1="3066.427" x2="-1732.4141" y2="3066.427" gradientTransform="matrix(0.3395 -0.9406 0.9406 0.3395 -1968.9637 -2418.9177)">
					<stop  offset="0" style="stop-color:#275981"/>
					<stop  offset="1" style="stop-color:#77A9D1"/>
				</linearGradient>
				<path style="fill:url(#SVGID_00000131343978918801323100000007030984950365763498_);" d="M350.147,283.392h-66.771
					c0-18.438,14.947-33.385,33.388-33.385C335.199,250.007,350.147,264.954,350.147,283.392z"/>
			</g>
			<g>
				
					<linearGradient id="SVGID_00000018929796129169718800000002521576055730052011_" gradientUnits="userSpaceOnUse" x1="-717.3215" y1="2342.2102" x2="-622.8919" y2="2342.2102" gradientTransform="matrix(0.7071 -0.7071 0.7071 0.7071 -932.3522 -1880.0012)">
					<stop  offset="0" style="stop-color:#275981"/>
					<stop  offset="1" style="stop-color:#77A9D1"/>
				</linearGradient>
				
					<rect x="216.607" y="216.622" style="fill:url(#SVGID_00000018929796129169718800000002521576055730052011_);" width="66.77" height="66.773"/>
				
					<linearGradient id="SVGID_00000134939563483266806870000011438832458327221665_" gradientUnits="userSpaceOnUse" x1="-684.954" y1="2321.3918" x2="-627.9622" y2="2321.3918" gradientTransform="matrix(0.7071 -0.7071 0.7071 0.7071 -927.2824 -1882.1018)">
					<stop  offset="0" style="stop-color:#000948"/>
					<stop  offset="1" style="stop-color:#285998"/>
				</linearGradient>
				<path style="fill:url(#SVGID_00000134939563483266806870000011438832458327221665_);" d="M216.607,216.622h66.769
					c0,18.438-14.947,33.385-33.383,33.385C231.555,250.007,216.607,235.06,216.607,216.622z"/>
			</g>
			<g>
				
					<linearGradient id="SVGID_00000043456498166768896980000005636461125099635339_" gradientUnits="userSpaceOnUse" x1="123.0126" y1="561.5975" x2="196.4828" y2="561.5975" gradientTransform="matrix(0.9944 -0.106 0.106 0.9944 -35.1608 -291.5127)">
					<stop  offset="0" style="stop-color:#009892"/>
					<stop  offset="1" style="stop-color:#42E8E2"/>
				</linearGradient>
				
					<rect x="149.836" y="216.622" style="fill:url(#SVGID_00000043456498166768896980000005636461125099635339_);" width="66.771" height="66.77"/>
				<path style="fill:#E6F5FF;" d="M149.836,216.622h66.771c0,18.438-14.948,33.385-33.389,33.385
					C164.783,250.007,149.836,235.06,149.836,216.622z"/>
			</g>
			<g>
				
					<linearGradient id="SVGID_00000084505105401562134440000017533769434447003839_" gradientUnits="userSpaceOnUse" x1="-2721.5115" y1="3093.0308" x2="-2650.9211" y2="3093.0308" gradientTransform="matrix(0.059 -0.9983 0.9983 0.059 -2812.8374 -2614.1321)">
					<stop  offset="0" style="stop-color:#000948"/>
					<stop  offset="1" style="stop-color:#285998"/>
				</linearGradient>
				
					<rect x="83.061" y="216.622" style="fill:url(#SVGID_00000084505105401562134440000017533769434447003839_);" width="66.775" height="66.77"/>
				<path style="fill:#E6F5FF;" d="M83.061,283.392v-66.77c18.44,0,33.388,14.948,33.388,33.385S101.501,283.392,83.061,283.392z"/>
			</g>
			<g>
				
					<linearGradient id="SVGID_00000118379996113672135810000004630871616175306124_" gradientUnits="userSpaceOnUse" x1="-884.1661" y1="2261.3999" x2="-789.7382" y2="2261.3999" gradientTransform="matrix(0.7071 -0.7071 0.7071 0.7071 -957.551 -1940.8381)">
					<stop  offset="0" style="stop-color:#009892"/>
					<stop  offset="1" style="stop-color:#42E8E2"/>
				</linearGradient>
				
					<rect x="16.291" y="216.622" style="fill:url(#SVGID_00000118379996113672135810000004630871616175306124_);" width="66.77" height="66.77"/>
				
					<linearGradient id="SVGID_00000119813824637668108850000007042946672104480684_" gradientUnits="userSpaceOnUse" x1="-844.6284" y1="2275.0483" x2="-787.6379" y2="2275.0483" gradientTransform="matrix(0.7071 -0.7071 0.7071 0.7071 -955.4509 -1935.7678)">
					<stop  offset="0" style="stop-color:#275981"/>
					<stop  offset="1" style="stop-color:#77A9D1"/>
				</linearGradient>
				<path style="fill:url(#SVGID_00000119813824637668108850000007042946672104480684_);" d="M83.061,216.622v66.77
					c-18.435,0-33.382-14.947-33.382-33.385S64.626,216.622,83.061,216.622z"/>
			</g>
			<g>
				
					<linearGradient id="SVGID_00000089573962740470267330000008414325328798188425_" gradientUnits="userSpaceOnUse" x1="179.0948" y1="919.679" x2="260.1277" y2="919.679" gradientTransform="matrix(0.9698 -0.2437 0.2437 0.9698 -120.3518 -655.1508)">
					<stop  offset="0" style="stop-color:#000948"/>
					<stop  offset="1" style="stop-color:#285998"/>
				</linearGradient>
				
					<rect x="283.368" y="149.85" style="fill:url(#SVGID_00000089573962740470267330000008414325328798188425_);" width="66.77" height="66.77"/>
				<path style="fill:#E6F5FF;" d="M283.368,216.62v-66.77c18.439,0,33.387,14.947,33.387,33.385S301.808,216.62,283.368,216.62z"/>
			</g>
			<g>
				
					<linearGradient id="SVGID_00000067953890448312717160000006418115687393648782_" gradientUnits="userSpaceOnUse" x1="-690.3922" y1="2286.5903" x2="-595.9638" y2="2286.5903" gradientTransform="matrix(0.7071 -0.7071 0.7071 0.7071 -912.0739 -1888.4045)">
					<stop  offset="0" style="stop-color:#009892"/>
					<stop  offset="1" style="stop-color:#42E8E2"/>
				</linearGradient>
				
					<rect x="216.598" y="149.85" style="fill:url(#SVGID_00000067953890448312717160000006418115687393648782_);" width="66.771" height="66.77"/>
				
					<linearGradient id="SVGID_00000073692593399478294680000005556578102493721787_" gradientUnits="userSpaceOnUse" x1="-692.4917" y1="2272.9424" x2="-635.4979" y2="2272.9424" gradientTransform="matrix(0.7071 -0.7071 0.7071 0.7071 -914.174 -1893.4738)">
					<stop  offset="0" style="stop-color:#275981"/>
					<stop  offset="1" style="stop-color:#77A9D1"/>
				</linearGradient>
				<path style="fill:url(#SVGID_00000073692593399478294680000005556578102493721787_);" d="M216.598,216.62v-66.77
					c18.44,0,33.388,14.947,33.388,33.385S235.038,216.62,216.598,216.62z"/>
			</g>
			<g>
				<rect x="149.827" y="149.85" style="fill:#E6F5FF;" width="66.771" height="66.77"/>
				
					<linearGradient id="SVGID_00000078748531218813823230000011848538259112264858_" gradientUnits="userSpaceOnUse" x1="-161.1369" y1="-1163.0582" x2="-98.1555" y2="-1163.0582" gradientTransform="matrix(0.8864 0.463 -0.463 0.8864 -237.8977 1298.7523)">
					<stop  offset="0" style="stop-color:#009892"/>
					<stop  offset="1" style="stop-color:#42E8E2"/>
				</linearGradient>
				<path style="fill:url(#SVGID_00000078748531218813823230000011848538259112264858_);" d="M216.598,216.62h-66.771
					c0-18.438,14.948-33.385,33.387-33.385C201.65,183.234,216.598,198.182,216.598,216.62z"/>
			</g>
			<g>
				
					<linearGradient id="SVGID_00000135681682100378411330000004587004431480492686_" gradientUnits="userSpaceOnUse" x1="-801.6193" y1="2232.718" x2="-707.1913" y2="2232.718" gradientTransform="matrix(0.7071 -0.7071 0.7071 0.7071 -928.8732 -1928.9602)">
					<stop  offset="0" style="stop-color:#009892"/>
					<stop  offset="1" style="stop-color:#42E8E2"/>
				</linearGradient>
				
					<rect x="83.057" y="149.85" style="fill:url(#SVGID_00000135681682100378411330000004587004431480492686_);" width="66.77" height="66.77"/>
				
					<linearGradient id="SVGID_00000147928968045919794530000013091217425270799799_" gradientUnits="userSpaceOnUse" x1="-769.2538" y1="2211.9004" x2="-712.2615" y2="2211.9004" gradientTransform="matrix(0.7071 -0.7071 0.7071 0.7071 -923.8034 -1931.0608)">
					<stop  offset="0" style="stop-color:#275981"/>
					<stop  offset="1" style="stop-color:#77A9D1"/>
				</linearGradient>
				<path style="fill:url(#SVGID_00000147928968045919794530000013091217425270799799_);" d="M83.057,149.85h66.77
					c0,18.438-14.947,33.385-33.387,33.385C98.004,183.234,83.057,168.287,83.057,149.85z"/>
			</g>
			<g>
				
					<linearGradient id="SVGID_00000021832265489559658960000012660631164766456980_" gradientUnits="userSpaceOnUse" x1="-857.2333" y1="2205.7827" x2="-762.8054" y2="2205.7827" gradientTransform="matrix(0.7071 -0.7071 0.7071 0.7071 -937.2726 -1949.239)">
					<stop  offset="0" style="stop-color:#000948"/>
					<stop  offset="1" style="stop-color:#285998"/>
				</linearGradient>
				
					<rect x="16.287" y="149.85" style="fill:url(#SVGID_00000021832265489559658960000012660631164766456980_);" width="66.77" height="66.77"/>
				
					<linearGradient id="SVGID_00000139254773105949030900000017021615357488806567_" gradientUnits="userSpaceOnUse" x1="-852.1637" y1="2226.6001" x2="-795.1717" y2="2226.6001" gradientTransform="matrix(0.7071 -0.7071 0.7071 0.7071 -942.342 -1947.1389)">
					<stop  offset="0" style="stop-color:#009892"/>
					<stop  offset="1" style="stop-color:#42E8E2"/>
				</linearGradient>
				<path style="fill:url(#SVGID_00000139254773105949030900000017021615357488806567_);" d="M83.057,216.62h-66.77
					c0-18.438,14.947-33.385,33.383-33.385C68.109,183.234,83.057,198.182,83.057,216.62z"/>
			</g>
			<g>
				
					<linearGradient id="SVGID_00000137094936329731456980000017065215126157513630_" gradientUnits="userSpaceOnUse" x1="-5646.4478" y1="991.0026" x2="-5563.5693" y2="991.0026" gradientTransform="matrix(-0.9595 -0.2818 0.2818 -0.9595 -5340.5132 -512.1611)">
					<stop  offset="0" style="stop-color:#275981"/>
					<stop  offset="1" style="stop-color:#77A9D1"/>
				</linearGradient>
				
					<rect x="283.372" y="83.077" style="fill:url(#SVGID_00000137094936329731456980000017065215126157513630_);" width="66.771" height="66.772"/>
				<path style="fill:#E6F5FF;" d="M350.143,83.077v66.772c-18.436,0-33.383-14.95-33.383-33.387
					C316.76,98.024,331.707,83.077,350.143,83.077z"/>
			</g>
			<g>
				
					<linearGradient id="SVGID_00000070830731491159621460000000764117900036935581_" gradientUnits="userSpaceOnUse" x1="-663.4525" y1="2230.9773" x2="-569.0231" y2="2230.9773" gradientTransform="matrix(0.7071 -0.7071 0.7071 0.7071 -891.7951 -1896.8025)">
					<stop  offset="0" style="stop-color:#275981"/>
					<stop  offset="1" style="stop-color:#77A9D1"/>
				</linearGradient>
				
					<rect x="216.602" y="83.077" style="fill:url(#SVGID_00000070830731491159621460000000764117900036935581_);" width="66.77" height="66.772"/>
				
					<linearGradient id="SVGID_00000152955827014100698240000009452059187430182320_" gradientUnits="userSpaceOnUse" x1="-665.5524" y1="2217.3293" x2="-608.5571" y2="2217.3293" gradientTransform="matrix(0.7071 -0.7071 0.7071 0.7071 -893.8947 -1901.8718)">
					<stop  offset="0" style="stop-color:#000948"/>
					<stop  offset="1" style="stop-color:#285998"/>
				</linearGradient>
				<path style="fill:url(#SVGID_00000152955827014100698240000009452059187430182320_);" d="M216.602,149.85V83.077
					c18.439,0,33.388,14.947,33.388,33.385C249.99,134.902,235.042,149.85,216.602,149.85z"/>
			</g>
			<g>
				
					<linearGradient id="SVGID_00000081628150561857574920000009008540113194358187_" gradientUnits="userSpaceOnUse" x1="-719.0663" y1="2204.0405" x2="-624.6372" y2="2204.0405" gradientTransform="matrix(0.7071 -0.7071 0.7071 0.7071 -900.194 -1917.0813)">
					<stop  offset="0" style="stop-color:#000948"/>
					<stop  offset="1" style="stop-color:#285998"/>
				</linearGradient>
				
					<rect x="149.831" y="83.077" style="fill:url(#SVGID_00000081628150561857574920000009008540113194358187_);" width="66.771" height="66.77"/>
				
					<linearGradient id="SVGID_00000029736589475729275940000012139099379044456889_" gradientUnits="userSpaceOnUse" x1="-721.1658" y1="2190.3918" x2="-664.1721" y2="2190.3918" gradientTransform="matrix(0.7071 -0.7071 0.7071 0.7071 -902.2936 -1922.1501)">
					<stop  offset="0" style="stop-color:#009892"/>
					<stop  offset="1" style="stop-color:#42E8E2"/>
				</linearGradient>
				<path style="fill:url(#SVGID_00000029736589475729275940000012139099379044456889_);" d="M149.831,149.847v-66.77
					c18.44,0,33.388,14.947,33.388,33.385C183.219,134.9,168.271,149.847,149.831,149.847z"/>
			</g>
			<g>
				
					<linearGradient id="SVGID_00000137121500993195942760000015116151080704624058_" gradientUnits="userSpaceOnUse" x1="-926.6552" y1="2319.5674" x2="-832.469" y2="2319.5674" gradientTransform="matrix(0.6548 -0.7558 0.7558 0.6548 -1060.7457 -2067.1636)">
					<stop  offset="0" style="stop-color:#000948"/>
					<stop  offset="1" style="stop-color:#285998"/>
				</linearGradient>
				
					<rect x="83.061" y="83.077" style="fill:url(#SVGID_00000137121500993195942760000015116151080704624058_);" width="66.77" height="66.77"/>
				<path style="fill:#E6F5FF;" d="M83.061,149.847v-66.77c18.436,0,33.383,14.947,33.383,33.385
					C116.444,134.9,101.497,149.847,83.061,149.847z"/>
			</g>
			<g>
				
					<linearGradient id="SVGID_00000078725843979858957170000001437802704440065965_" gradientUnits="userSpaceOnUse" x1="-830.2963" y1="2150.1694" x2="-735.8652" y2="2150.1694" gradientTransform="matrix(0.7071 -0.7071 0.7071 0.7071 -916.9934 -1957.6379)">
					<stop  offset="0" style="stop-color:#000948"/>
					<stop  offset="1" style="stop-color:#285998"/>
				</linearGradient>
				
					<rect x="16.289" y="83.077" style="fill:url(#SVGID_00000078725843979858957170000001437802704440065965_);" width="66.772" height="66.772"/>
				
					<linearGradient id="SVGID_00000060708671856992340720000016690062830280447662_" gradientUnits="userSpaceOnUse" x1="-825.2263" y1="2170.9875" x2="-768.2317" y2="2170.9875" gradientTransform="matrix(0.7071 -0.7071 0.7071 0.7071 -922.0632 -1955.5378)">
					<stop  offset="0" style="stop-color:#009892"/>
					<stop  offset="1" style="stop-color:#42E8E2"/>
				</linearGradient>
				<path style="fill:url(#SVGID_00000060708671856992340720000016690062830280447662_);" d="M83.061,149.85H16.289
					c0-18.44,14.947-33.387,33.385-33.387C68.114,116.462,83.061,131.41,83.061,149.85z"/>
			</g>
			<g>
				
					<linearGradient id="SVGID_00000028315121409289157760000013844847110817697189_" gradientUnits="userSpaceOnUse" x1="-580.901" y1="2202.2964" x2="-486.4727" y2="2202.2964" gradientTransform="matrix(0.7071 -0.7071 0.7071 0.7071 -863.1164 -1884.924)">
					<stop  offset="0" style="stop-color:#000948"/>
					<stop  offset="1" style="stop-color:#285998"/>
				</linearGradient>
				
					<rect x="283.372" y="16.305" style="fill:url(#SVGID_00000028315121409289157760000013844847110817697189_);" width="66.771" height="66.77"/>
				
					<linearGradient id="SVGID_00000131369759130356037280000006465349926639052194_" gradientUnits="userSpaceOnUse" x1="-541.3671" y1="2215.9446" x2="-484.3735" y2="2215.9446" gradientTransform="matrix(0.7071 -0.7071 0.7071 0.7071 -861.0163 -1879.8552)">
					<stop  offset="0" style="stop-color:#009892"/>
					<stop  offset="1" style="stop-color:#42E8E2"/>
				</linearGradient>
				<path style="fill:url(#SVGID_00000131369759130356037280000006465349926639052194_);" d="M350.143,16.305v66.77
					c-18.44,0-33.388-14.947-33.388-33.385S331.703,16.305,350.143,16.305z"/>
			</g>
			<g>
				
					<linearGradient id="SVGID_00000101099631148192864690000015411227367014244012_" gradientUnits="userSpaceOnUse" x1="-3120.385" y1="3065.5249" x2="-3045.3359" y2="3065.5249" gradientTransform="matrix(-0.1328 -0.9911 0.9911 -0.1328 -3197.6584 -2598.6316)">
					<stop  offset="0" style="stop-color:#275981"/>
					<stop  offset="1" style="stop-color:#77A9D1"/>
				</linearGradient>
				
					<rect x="216.602" y="16.305" style="fill:url(#SVGID_00000101099631148192864690000015411227367014244012_);" width="66.77" height="66.77"/>
				<path style="fill:#E6F5FF;" d="M216.602,16.305h66.77c0,18.437-14.947,33.385-33.387,33.385
					C231.55,49.69,216.602,34.742,216.602,16.305z"/>
			</g>
			<g>
				
					<linearGradient id="SVGID_00000137097149369933665910000013582936129667364267_" gradientUnits="userSpaceOnUse" x1="-692.1326" y1="2148.4236" x2="-597.7006" y2="2148.4236" gradientTransform="matrix(0.7071 -0.7071 0.7071 0.7071 -879.9152 -1925.4812)">
					<stop  offset="0" style="stop-color:#000948"/>
					<stop  offset="1" style="stop-color:#285998"/>
				</linearGradient>
				
					<rect x="149.827" y="16.305" style="fill:url(#SVGID_00000137097149369933665910000013582936129667364267_);" width="66.776" height="66.77"/>
				
					<linearGradient id="SVGID_00000050660637033266951700000010617697629013590966_" gradientUnits="userSpaceOnUse" x1="-687.063" y1="2169.2419" x2="-630.0673" y2="2169.2419" gradientTransform="matrix(0.7071 -0.7071 0.7071 0.7071 -884.985 -1923.3816)">
					<stop  offset="0" style="stop-color:#009892"/>
					<stop  offset="1" style="stop-color:#42E8E2"/>
				</linearGradient>
				<path style="fill:url(#SVGID_00000050660637033266951700000010617697629013590966_);" d="M216.602,83.075h-66.776
					c0-18.438,14.948-33.385,33.387-33.385C201.655,49.69,216.602,64.637,216.602,83.075z"/>
			</g>
			<g>
				
					<linearGradient id="SVGID_00000047037485662362885610000006253864386375085201_" gradientUnits="userSpaceOnUse" x1="-747.7468" y1="2121.4871" x2="-653.3188" y2="2121.4871" gradientTransform="matrix(0.7071 -0.7071 0.7071 0.7071 -888.3151 -1945.7605)">
					<stop  offset="0" style="stop-color:#000948"/>
					<stop  offset="1" style="stop-color:#285998"/>
				</linearGradient>
				
					<rect x="83.057" y="16.305" style="fill:url(#SVGID_00000047037485662362885610000006253864386375085201_);" width="66.77" height="66.77"/>
				
					<linearGradient id="SVGID_00000124844631094529515270000013317421815493676194_" gradientUnits="userSpaceOnUse" x1="-749.846" y1="2107.8391" x2="-692.8528" y2="2107.8391" gradientTransform="matrix(0.7071 -0.7071 0.7071 0.7071 -890.4152 -1950.8293)">
					<stop  offset="0" style="stop-color:#009892"/>
					<stop  offset="1" style="stop-color:#42E8E2"/>
				</linearGradient>
				<path style="fill:url(#SVGID_00000124844631094529515270000013317421815493676194_);" d="M83.057,83.075v-66.77
					c18.44,0,33.387,14.948,33.387,33.387C116.444,68.127,101.497,83.075,83.057,83.075z"/>
			</g>
			<g>
				<rect x="16.287" y="16.305" style="fill:#E6F5FF;" width="66.77" height="66.77"/>
				
					<linearGradient id="SVGID_00000043423921187720920620000010872701296758329735_" gradientUnits="userSpaceOnUse" x1="-933.3185" y1="-2047.8817" x2="-877.0732" y2="-2047.8817" gradientTransform="matrix(0.6847 0.7288 -0.7288 0.6847 -822.7324 2085.1313)">
					<stop  offset="0" style="stop-color:#275981"/>
					<stop  offset="1" style="stop-color:#77A9D1"/>
				</linearGradient>
				<path style="fill:url(#SVGID_00000043423921187720920620000010872701296758329735_);" d="M16.287,16.305h66.77
					c0,18.437-14.947,33.385-33.383,33.385C31.234,49.69,16.287,34.742,16.287,16.305z"/>
			</g>
		</g>
	</g>
</g>
<g id="Layer_1">
</g>
</svg>
